REM MD5 3a152afd9ca739cd34cdd131ce858eed
FILE "Tiny Toon Adventures - Toonenstein - Dare to Scare! (Europe).bin" BINARY
  TRACK 01 MODE2/2352
    INDEX 01 00:00:00
  TRACK 02 AUDIO
    INDEX 00 61:15:31
    INDEX 01 61:17:31
  TRACK 03 AUDIO
    INDEX 00 62:46:04
    INDEX 01 62:48:04
REM LEADOUT 66:17:00
